<?xml version="1.0" encoding="utf-8"?>
<!-- Generator: Adobe Illustrator 17.0.0, SVG Export Plug-In . SVG Version: 6.00 Build 0)  -->
<!DOCTYPE svg PUBLIC "-//W3C//DTD SVG 1.1//EN" "http://www.w3.org/Graphics/SVG/1.1/DTD/svg11.dtd">
<svg version="1.1" id="Layer_1" xmlns="http://www.w3.org/2000/svg" xmlns:xlink="http://www.w3.org/1999/xlink" x="0px" y="0px"
	 width="975.41px" height="342.623px" viewBox="0 0 975.41 342.623" enable-background="new 0 0 975.41 342.623"
	 xml:space="preserve">
<g>
	<g>
		<g>
			<path fill="#FFFFFF" d="M285.059,87.226h-23.426v14.04h22.745v8.289h-22.745v19.527h23.426v8.287h-32.243V78.938h32.243V87.226z"
				/>
			<path fill="#FFFFFF" d="M297.724,137.369V74.965l42.613,44.58V78.938h8.817v61.99L306.543,96.46v40.909H297.724z"/>
			<path fill="#FFFFFF" d="M380.365,87.226v50.144h-8.818V87.226h-13.435v-8.288h35.649v8.288H380.365z"/>
			<path fill="#FFFFFF" d="M434.961,87.226h-23.426v14.04h22.745v8.289h-22.745v19.527h23.426v8.287h-32.243V78.938h32.243V87.226z
				 M432.123,63.233l-15.439,10.445l-4.201-3.52l12.148-12.186L432.123,63.233z"/>
			<path fill="#FFFFFF" d="M467.419,112.468l18.09,24.901h-10.786l-16.689-23.917h-1.589v23.917h-8.818V78.938h10.332
				c7.721,0,13.295,1.451,16.727,4.353c3.785,3.229,5.678,7.493,5.678,12.792c0,4.137-1.188,7.695-3.559,10.672
				S471.304,111.635,467.419,112.468z M456.445,105.77h2.801c8.35,0,12.525-3.191,12.525-9.574c0-5.98-4.062-8.97-12.186-8.97
				h-3.141V105.77z"/>
			<path fill="#FFFFFF" d="M529.699,123.178h-25.016l-6.509,14.191h-9.499l28.913-62.102l27.892,62.102h-9.65L529.699,123.178z
				 M526.103,114.891l-8.666-19.869l-9.082,19.869H526.103z"/>
			<path fill="#FFFFFF" d="M566.736,87.226v50.144h-8.817V87.226h-13.435v-8.288h35.649v8.288H566.736z"/>
			<path fill="#FFFFFF" d="M621.334,87.226h-23.426v14.04h22.744v8.289h-22.744v19.527h23.426v8.287h-32.244V78.938h32.244V87.226z"
				/>
			<path fill="#FFFFFF" d="M659.002,137.369V78.938h12.262c5.878,0,10.521,0.581,13.926,1.741c3.658,1.136,6.977,3.065,9.953,5.79
				c6.03,5.5,9.045,12.729,9.045,21.686c0,8.981-3.141,16.248-9.423,21.798c-3.154,2.775-6.459,4.706-9.915,5.79
				c-3.23,1.085-7.809,1.627-13.738,1.627H659.002z M667.819,129.082h3.974c3.961,0,7.254-0.416,9.877-1.249
				c2.624-0.883,4.996-2.283,7.115-4.2c4.34-3.961,6.51-9.121,6.51-15.479c0-6.408-2.145-11.605-6.434-15.592
				c-3.86-3.559-9.551-5.337-17.068-5.337h-3.974V129.082z"/>
			<path fill="#FFFFFF" d="M748.605,87.226h-23.426v14.04h22.744v8.289h-22.744v19.527h23.426v8.287h-32.244V78.938h32.244V87.226z"
				/>
			<path fill="#FFFFFF" d="M132.546,216.151v-62.405l42.612,44.581v-40.607h8.817v61.989l-42.612-44.468v40.91H132.546z"/>
			<path fill="#FFFFFF" d="M207.882,157.719v35.169c0,5.018,0.819,8.686,2.459,11.005c2.447,3.354,5.891,5.029,10.332,5.029
				c4.466,0,7.922-1.676,10.369-5.029c1.641-2.244,2.46-5.912,2.46-11.005v-35.169h8.817v37.617c0,6.156-1.917,11.228-5.752,15.213
				c-4.314,4.441-9.612,6.661-15.895,6.661s-11.568-2.22-15.857-6.661c-3.834-3.985-5.752-9.057-5.752-15.213v-37.617H207.882z"/>
			<path fill="#FFFFFF" d="M289.652,166.006h-23.426v14.041h22.744v8.288h-22.744v19.527h23.426v8.288h-32.244v-58.432h32.244
				V166.006z"/>
			<path fill="#FFFFFF" d="M335.355,166.385l-7.152,4.238c-1.338-2.32-2.611-3.834-3.822-4.541c-1.262-0.807-2.89-1.211-4.883-1.211
				c-2.447,0-4.479,0.695-6.092,2.084c-1.615,1.363-2.423,3.08-2.423,5.15c0,2.853,2.12,5.15,6.358,6.892l5.828,2.386
				c4.742,1.92,8.212,4.262,10.406,7.025c2.195,2.766,3.293,6.154,3.293,10.169c0,5.378-1.792,9.821-5.374,13.331
				c-3.608,3.535-8.087,5.302-13.435,5.302c-5.071,0-9.26-1.508-12.564-4.524c-3.255-3.014-5.285-7.245-6.093-12.695l8.931-1.967
				c0.404,3.432,1.11,5.803,2.119,7.114c1.816,2.522,4.467,3.784,7.947,3.784c2.75,0,5.033-0.92,6.851-2.76
				c1.816-1.84,2.725-4.173,2.725-6.996c0-1.135-0.157-2.175-0.474-3.121c-0.314-0.945-0.807-1.814-1.475-2.609
				c-0.67-0.793-1.533-1.537-2.594-2.23c-1.059-0.693-2.32-1.355-3.783-1.986l-5.639-2.344c-7.999-3.379-11.998-8.32-11.998-14.824
				c0-4.387,1.678-8.055,5.034-11.005c3.354-2.975,7.53-4.462,12.526-4.462C326.31,156.584,331.57,159.852,335.355,166.385z"/>
			<path fill="#FFFFFF" d="M365.807,166.006v50.145h-8.817v-50.145h-13.436v-8.287h35.65v8.287H365.807z"/>
			<path fill="#FFFFFF" d="M407.954,191.248l18.089,24.902h-10.785l-16.689-23.918h-1.59v23.918h-8.817v-58.432h10.331
				c7.721,0,13.297,1.451,16.729,4.352c3.783,3.23,5.676,7.494,5.676,12.792c0,4.138-1.186,7.695-3.557,10.672
				C414.967,188.512,411.838,190.416,407.954,191.248z M396.978,184.551h2.801c8.352,0,12.527-3.191,12.527-9.575
				c0-5.979-4.062-8.97-12.187-8.97h-3.142V184.551z"/>
			<path fill="#FFFFFF" d="M431.669,186.67c0-8.225,3.014-15.289,9.045-21.193c6.004-5.903,13.22-8.855,21.646-8.855
				c8.326,0,15.465,2.978,21.42,8.932c5.979,5.954,8.969,13.107,8.969,21.457c0,8.402-3.002,15.529-9.006,21.383
				c-6.031,5.879-13.31,8.817-21.837,8.817c-7.544,0-14.317-2.611-20.322-7.833C434.974,203.6,431.669,196.031,431.669,186.67z
				 M440.562,186.764c0,6.454,2.17,11.76,6.51,15.92c4.314,4.158,9.297,6.238,14.949,6.238c6.131,0,11.302-2.117,15.516-6.353
				c4.213-4.284,6.32-9.503,6.32-15.653c0-6.227-2.082-11.444-6.244-15.654c-4.139-4.235-9.26-6.353-15.365-6.353
				c-6.08,0-11.215,2.117-15.402,6.353C442.657,175.447,440.562,180.614,440.562,186.764z"/>
			<path fill="#FFFFFF" d="M538.744,192.422v23.729h-8.817v-58.432h9.991c4.895,0,8.591,0.34,11.088,1.021
				c2.523,0.682,4.744,1.969,6.661,3.86c3.354,3.28,5.033,7.417,5.033,12.413c0,5.35-1.792,9.588-5.374,12.716
				s-8.414,4.692-14.494,4.692H538.744z M538.744,184.248h3.293c8.099,0,12.148-3.116,12.148-9.348c0-6.03-4.176-9.045-12.527-9.045
				h-2.914V184.248z"/>
			<path fill="#FFFFFF" d="M592.66,191.248l18.09,24.902h-10.785l-16.689-23.918h-1.59v23.918h-8.818v-58.432h10.332
				c7.721,0,13.296,1.451,16.728,4.352c3.784,3.23,5.677,7.494,5.677,12.792c0,4.138-1.187,7.695-3.558,10.672
				C599.673,188.512,596.544,190.416,592.66,191.248z M581.685,184.551h2.801c8.351,0,12.526-3.191,12.526-9.575
				c0-5.979-4.062-8.97-12.187-8.97h-3.141V184.551z"/>
			<path fill="#FFFFFF" d="M616.377,186.67c0-8.225,3.014-15.289,9.045-21.193c6.004-5.903,13.22-8.855,21.646-8.855
				c8.326,0,15.465,2.978,21.42,8.932c5.979,5.954,8.969,13.107,8.969,21.457c0,8.402-3.002,15.529-9.006,21.383
				c-6.031,5.879-13.31,8.817-21.837,8.817c-7.544,0-14.317-2.611-20.322-7.833C619.681,203.6,616.377,196.031,616.377,186.67z
				 M625.269,186.764c0,6.454,2.17,11.76,6.51,15.92c4.314,4.158,9.297,6.238,14.949,6.238c6.131,0,11.302-2.117,15.516-6.353
				c4.213-4.284,6.32-9.503,6.32-15.653c0-6.227-2.082-11.444-6.244-15.654c-4.139-4.235-9.26-6.353-15.365-6.353
				c-6.08,0-11.215,2.117-15.402,6.353C627.364,175.447,625.269,180.614,625.269,186.764z"/>
			<path fill="#FFFFFF" d="M732.811,160.84v10.428c-5.097-4.264-10.369-6.396-15.819-6.396c-6.004,0-11.062,2.157-15.176,6.472
				c-4.138,4.289-6.206,9.536-6.206,15.743c0,6.131,2.068,11.303,6.206,15.516c4.139,4.215,9.209,6.32,15.214,6.32
				c3.104,0,5.739-0.504,7.909-1.514c1.211-0.504,2.467-1.186,3.766-2.043s2.668-1.893,4.106-3.104v10.652
				c-5.046,2.864-10.345,4.296-15.895,4.296c-8.351,0-15.479-2.914-21.382-8.742c-5.879-5.878-8.818-12.968-8.818-21.269
				c0-7.441,2.46-14.078,7.38-19.906c6.056-7.139,13.89-10.709,23.501-10.709C722.845,156.584,727.916,158.002,732.811,160.84z"/>
			<path fill="#FFFFFF" d="M777.265,166.006h-23.426v14.041h22.745v8.288h-22.745v19.527h23.426v8.288h-32.243v-58.432h32.243
				V166.006z"/>
			<path fill="#FFFFFF" d="M822.969,166.385l-7.153,4.238c-1.337-2.32-2.611-3.834-3.822-4.541
				c-1.262-0.807-2.889-1.211-4.881-1.211c-2.448,0-4.479,0.695-6.094,2.084c-1.615,1.363-2.422,3.08-2.422,5.15
				c0,2.853,2.119,5.15,6.357,6.892l5.828,2.386c4.744,1.92,8.213,4.262,10.408,7.025c2.194,2.766,3.292,6.154,3.292,10.169
				c0,5.378-1.792,9.821-5.374,13.331c-3.608,3.535-8.086,5.302-13.435,5.302c-5.071,0-9.26-1.508-12.564-4.524
				c-3.255-3.014-5.286-7.245-6.093-12.695l8.932-1.967c0.402,3.432,1.109,5.803,2.119,7.114c1.816,2.522,4.465,3.784,7.947,3.784
				c2.749,0,5.033-0.92,6.85-2.76s2.725-4.173,2.725-6.996c0-1.135-0.158-2.175-0.473-3.121c-0.316-0.945-0.809-1.814-1.477-2.609
				c-0.668-0.793-1.532-1.537-2.592-2.23c-1.061-0.693-2.322-1.355-3.785-1.986l-5.639-2.344
				c-7.998-3.379-11.996-8.32-11.996-14.824c0-4.387,1.678-8.055,5.033-11.005c3.355-2.975,7.531-4.462,12.526-4.462
				C813.924,156.584,819.185,159.852,822.969,166.385z"/>
			<path fill="#FFFFFF" d="M833.289,186.67c0-8.225,3.014-15.289,9.045-21.193c6.004-5.903,13.22-8.855,21.646-8.855
				c8.326,0,15.465,2.978,21.42,8.932c5.979,5.954,8.969,13.107,8.969,21.457c0,8.402-3.002,15.529-9.006,21.383
				c-6.031,5.879-13.31,8.817-21.837,8.817c-7.544,0-14.317-2.611-20.322-7.833C836.593,203.6,833.289,196.031,833.289,186.67z
				 M842.181,186.764c0,6.454,2.17,11.76,6.51,15.92c4.314,4.158,9.297,6.238,14.949,6.238c6.131,0,11.302-2.117,15.516-6.353
				c4.213-4.284,6.32-9.503,6.32-15.653c0-6.227-2.082-11.444-6.244-15.654c-4.139-4.235-9.26-6.353-15.365-6.353
				c-6.08,0-11.215,2.117-15.402,6.353C844.276,175.447,842.181,180.614,842.181,186.764z"/>
		</g>
	</g>
	<rect x="78.533" y="21.09" fill="none" stroke="#FFFFFF" stroke-width="5" stroke-miterlimit="10" width="868" height="255"/>
	<polygon fill="none" stroke="#FFFFFF" stroke-width="5" stroke-miterlimit="10" points="920.533,276.09 920.533,298.09 
		52.533,298.09 52.533,44.09 78.533,44.09 78.533,276.09 	"/>
	<polygon fill="none" stroke="#FFFFFF" stroke-width="5" stroke-miterlimit="10" points="892.533,298.09 892.533,322.09 
		26.533,322.09 26.533,67.09 52.533,67.09 52.533,298.09 	"/>
</g>
</svg>
